<svg width="432" height="455" viewBox="0 0 432 455" fill="none" xmlns="http://www.w3.org/2000/svg">
<path d="M0.831055 222C67.4977 122 140.831 102 220.831 162C307.498 228.667 377.498 222 430.831 142V454H0.831055V222Z" fill="#0F66BF"/>
<path d="M0.831055 262C94.1644 162 184.164 138.667 270.831 192C324.164 232 377.498 228.667 430.831 182V454H0.831055V262Z" fill="url(#paint0_linear_1154_30)"/>
<path d="M362.331 389C353.543 417.074 303.935 382.565 260.831 454H430.831V336C426.741 331.511 371.119 360.926 362.331 389Z" fill="#45C0F7"/>
<path opacity="0.4" d="M80.8311 92V142" stroke="#0F66BF"/>
<path opacity="0.4" d="M86.8311 94V144" stroke="#0F66BF"/>
<path opacity="0.4" d="M92.8311 96V146" stroke="#0F66BF"/>
<path opacity="0.4" d="M98.8311 98V148" stroke="#0F66BF"/>
<path opacity="0.4" d="M104.831 100V150" stroke="#0F66BF"/>
<path opacity="0.4" d="M300.831 102V152" stroke="#0F66BF"/>
<path opacity="0.4" d="M306.831 104V154" stroke="#0F66BF"/>
<path opacity="0.4" d="M312.831 106V156" stroke="#0F66BF"/>
<path opacity="0.4" d="M318.831 108V158" stroke="#0F66BF"/>
<path opacity="0.4" d="M324.831 110V160" stroke="#0F66BF"/>
<path d="M50.8311 110C55.2493 110 58.8311 106.418 58.8311 102C58.8311 97.5817 55.2493 94 50.8311 94C46.4128 94 42.8311 97.5817 42.8311 102C42.8311 106.418 46.4128 110 50.8311 110Z" stroke="#0F66BF" stroke-width="2"/>
<path d="M220.831 50C225.249 50 228.831 46.4183 228.831 42C228.831 37.5817 225.249 34 220.831 34C216.413 34 212.831 37.5817 212.831 42C212.831 46.4183 216.413 50 220.831 50Z" stroke="#0F66BF" stroke-width="2"/>
<path d="M400.831 430C405.249 430 408.831 426.418 408.831 422C408.831 417.582 405.249 414 400.831 414C396.413 414 392.831 417.582 392.831 422C392.831 426.418 396.413 430 400.831 430Z" stroke="#0F66BF" stroke-width="2"/>
<path d="M390.831 450C395.249 450 398.831 446.418 398.831 442C398.831 437.582 395.249 434 390.831 434C386.413 434 382.831 437.582 382.831 442C382.831 446.418 386.413 450 390.831 450Z" stroke="#0F66BF" stroke-width="2"/>
<path d="M250.831 44C257.458 44 262.831 34.1503 262.831 22C262.831 9.84974 257.458 0 250.831 0C244.204 0 238.831 9.84974 238.831 22C238.831 34.1503 244.204 44 250.831 44Z" fill="#0F66BF"/>
<path d="M290.831 57C300.772 57 308.831 45.8071 308.831 32C308.831 18.1929 300.772 7 290.831 7C280.89 7 272.831 18.1929 272.831 32C272.831 45.8071 280.89 57 290.831 57Z" fill="#0F66BF"/>
<path d="M430.831 232C430.831 232 435.831 193 386.831 174C337.831 155 228.331 200.5 228.331 200.5C228.331 200.5 165.831 49.0001 94.8311 81.0001C23.8311 113 74.009 276.631 0.831055 386" stroke="#61DCFE" stroke-width="2"/>
<path d="M430.831 324C373.332 343.932 306.014 396.181 277.369 454.5" stroke="#61DCFE" stroke-width="2"/>
<defs>
<linearGradient id="paint0_linear_1154_30" x1="23.3311" y1="351" x2="412.331" y2="309" gradientUnits="userSpaceOnUse">
<stop stop-color="#74DDFE"/>
<stop offset="1" stop-color="#2E6EB2"/>
</linearGradient>
</defs>
</svg>
