<svg width="1904" height="490" viewBox="0 0 1904 490" fill="none" xmlns="http://www.w3.org/2000/svg">
<path d="M1641.88 480.396H230.74C226.964 480.396 223.193 480.302 219.422 480.115C215.646 479.932 211.885 479.651 208.125 479.281C204.365 478.912 200.62 478.448 196.885 477.896C193.151 477.344 189.432 476.698 185.724 475.958C182.021 475.224 178.339 474.396 174.677 473.479C171.016 472.563 167.375 471.552 163.76 470.458C160.146 469.359 156.563 468.177 153.005 466.906C149.453 465.635 145.932 464.276 142.443 462.828C138.953 461.385 135.5 459.854 132.089 458.24C128.672 456.625 125.302 454.927 121.974 453.146C118.641 451.37 115.354 449.505 112.12 447.568C108.88 445.625 105.688 443.604 102.547 441.505C99.4115 439.406 96.3229 437.234 93.2917 434.984C90.2552 432.734 87.2813 430.412 84.3594 428.016C81.4427 425.62 78.5833 423.156 75.7865 420.62C72.9896 418.083 70.2552 415.479 67.5833 412.813C64.9115 410.141 62.3125 407.406 59.776 404.609C57.2396 401.813 54.7708 398.953 52.375 396.031C49.9792 393.115 47.6615 390.135 45.4115 387.104C43.1615 384.073 40.9844 380.984 38.8906 377.844C36.7917 374.703 34.7708 371.516 32.8281 368.276C30.8854 365.037 29.026 361.755 27.2448 358.422C25.4687 355.094 23.7708 351.719 22.1563 348.307C20.5417 344.896 19.0104 341.443 17.5677 337.953C16.1198 334.464 14.7604 330.943 13.4896 327.385C12.2187 323.833 11.0313 320.245 9.9375 316.635C8.83854 313.021 7.83333 309.38 6.91667 305.719C6 302.057 5.17187 298.37 4.4375 294.667C3.69792 290.964 3.05208 287.245 2.5 283.51C1.94271 279.776 1.48437 276.026 1.11458 272.271C0.744791 268.51 0.463541 264.745 0.28125 260.974C0.0937487 257.203 0 253.427 0 249.651C0 245.875 0.0937497 242.104 0.276042 238.328C0.463542 234.557 0.739584 230.792 1.10938 227.037C1.47917 223.276 1.94271 219.531 2.49479 215.797C3.05208 212.057 3.69792 208.339 4.43229 204.635C5.16667 200.932 5.99479 197.25 6.91146 193.583C7.82813 189.922 8.83854 186.281 9.93229 182.667C11.0313 179.057 12.2135 175.469 13.4844 171.917C14.7552 168.359 16.1146 164.839 17.5625 161.349C19.0052 157.859 20.5365 154.406 22.151 150.995C23.7656 147.578 25.4635 144.208 27.2396 140.875C29.0208 137.547 30.8802 134.26 32.8229 131.021C34.7656 127.781 36.7865 124.594 38.8802 121.453C40.9792 118.313 43.1563 115.224 45.401 112.193C47.651 109.162 49.974 106.182 52.3698 103.266C54.7656 100.344 57.2344 97.4844 59.7708 94.6875C62.3021 91.8907 64.9063 89.1563 67.5781 86.4844C70.25 83.8125 72.9844 81.2136 75.7813 78.6771C78.5781 76.1407 81.4375 73.6719 84.3542 71.2761C87.276 68.8803 90.25 66.5573 93.2865 64.3073C96.3177 62.0573 99.4063 59.8855 102.542 57.7865C105.682 55.6875 108.875 53.6667 112.115 51.7292C115.354 49.7865 118.635 47.9271 121.969 46.1459C125.297 44.3646 128.672 42.6667 132.083 41.0521C135.495 39.4375 138.948 37.9063 142.438 36.4636C145.927 35.0157 149.448 33.6563 153.005 32.3855C156.563 31.1146 160.146 29.9271 163.76 28.8334C167.37 27.7344 171.01 26.7292 174.672 25.8125C178.339 24.8959 182.021 24.0677 185.724 23.3334C189.427 22.5938 193.146 21.948 196.885 21.3959C200.62 20.8386 204.365 20.3802 208.125 20.0105C211.88 19.6355 215.646 19.3594 219.417 19.1771C223.193 18.9896 226.964 18.8959 230.74 18.8959H1641.88C1643.63 18.8959 1645.36 18.9844 1647.09 19.1511C1648.83 19.323 1650.55 19.5782 1652.26 19.9167C1653.96 20.2605 1655.66 20.6823 1657.32 21.1875C1658.99 21.6927 1660.63 22.2813 1662.23 22.948C1663.84 23.6146 1665.42 24.3542 1666.95 25.1771C1668.49 26 1669.98 26.8907 1671.43 27.8594C1672.88 28.8282 1674.28 29.8646 1675.63 30.9688C1676.97 32.073 1678.26 33.2448 1679.49 34.474C1680.72 35.7084 1681.89 36.9948 1682.99 38.3438C1684.1 39.6875 1685.14 41.0886 1686.1 42.5365C1687.07 43.9844 1687.97 45.474 1688.79 47.0105C1689.61 48.5469 1690.35 50.1198 1691.02 51.7292C1691.69 53.3386 1692.27 54.9792 1692.78 56.6459C1693.28 58.3125 1693.71 60 1694.05 61.7084C1694.39 63.4167 1694.64 65.1355 1694.81 66.8698C1694.98 68.6042 1695.07 70.3438 1695.07 72.0834V427.208C1695.07 428.948 1694.98 430.688 1694.81 432.422C1694.64 434.151 1694.39 435.875 1694.05 437.583C1693.71 439.292 1693.28 440.979 1692.78 442.646C1692.27 444.313 1691.69 445.953 1691.02 447.563C1690.35 449.172 1689.61 450.745 1688.79 452.276C1687.97 453.813 1687.07 455.307 1686.1 456.755C1685.14 458.203 1684.1 459.599 1682.99 460.948C1681.89 462.297 1680.72 463.583 1679.49 464.818C1678.26 466.047 1676.97 467.214 1675.63 468.323C1674.28 469.427 1672.88 470.464 1671.43 471.427C1669.98 472.396 1668.49 473.292 1666.95 474.115C1665.42 474.932 1663.84 475.677 1662.23 476.344C1660.63 477.01 1658.99 477.599 1657.32 478.104C1655.66 478.609 1653.96 479.031 1652.26 479.37C1650.55 479.714 1648.83 479.969 1647.09 480.135C1645.36 480.307 1643.63 480.396 1641.88 480.396Z" fill="#231F20"/>
<path d="M1632.59 434.443H240.031C236.625 434.443 233.229 434.359 229.828 434.193C226.432 434.026 223.036 433.776 219.651 433.443C216.266 433.109 212.891 432.693 209.526 432.193C206.161 431.693 202.813 431.115 199.474 430.448C196.135 429.786 192.818 429.042 189.521 428.214C186.219 427.385 182.943 426.479 179.688 425.49C176.432 424.505 173.203 423.438 170 422.292C166.797 421.146 163.62 419.922 160.479 418.62C157.333 417.318 154.224 415.938 151.151 414.484C148.073 413.031 145.036 411.5 142.036 409.896C139.036 408.292 136.078 406.62 133.156 404.87C130.24 403.12 127.37 401.302 124.536 399.411C121.708 397.521 118.927 395.563 116.198 393.536C113.464 391.51 110.781 389.417 108.151 387.26C105.521 385.099 102.948 382.88 100.427 380.594C97.9063 378.313 95.4427 375.964 93.0365 373.557C90.6302 371.156 88.2865 368.693 86 366.172C83.7188 363.651 81.4948 361.073 79.3385 358.443C77.1771 355.818 75.0833 353.135 73.0573 350.401C71.0313 347.667 69.0729 344.891 67.1823 342.063C65.2917 339.229 63.474 336.359 61.724 333.443C59.974 330.521 58.2969 327.563 56.6927 324.563C55.0938 321.563 53.5625 318.526 52.1094 315.448C50.651 312.375 49.276 309.266 47.974 306.12C46.6719 302.979 45.4479 299.807 44.2969 296.604C43.151 293.401 42.0885 290.172 41.099 286.917C40.1094 283.661 39.2031 280.38 38.375 277.083C37.5469 273.781 36.8021 270.464 36.1406 267.125C35.474 263.792 34.8958 260.438 34.3958 257.073C33.8958 253.708 33.4792 250.333 33.1458 246.948C32.8125 243.563 32.5625 240.172 32.3958 236.771C32.2292 233.375 32.1406 229.974 32.1406 226.573C32.1406 223.172 32.224 219.771 32.3958 216.37C32.5625 212.974 32.8125 209.583 33.1458 206.198C33.4792 202.813 33.8958 199.432 34.3906 196.068C34.8906 192.703 35.474 189.354 36.1354 186.016C36.8021 182.677 37.5469 179.359 38.375 176.063C39.1979 172.76 40.1094 169.484 41.0938 166.229C42.0833 162.969 43.151 159.74 44.2969 156.536C45.4427 153.333 46.6667 150.161 47.9688 147.016C49.2708 143.875 50.6458 140.766 52.1042 137.688C53.5573 134.615 55.0885 131.578 56.6875 128.578C58.2917 125.573 59.9688 122.615 61.7188 119.698C63.4688 116.781 65.2865 113.906 67.1771 111.078C69.0677 108.25 71.026 105.469 73.0521 102.734C75.0781 100 77.1719 97.3229 79.3333 94.6927C81.4896 92.0625 83.7083 89.4844 85.9948 86.9635C88.2813 84.4427 90.625 81.9792 93.0313 79.5729C95.4375 77.1719 97.901 74.8229 100.422 72.5417C102.943 70.2552 105.516 68.0313 108.146 65.875C110.776 63.7188 113.458 61.625 116.193 59.599C118.922 57.5729 121.703 55.6146 124.531 53.724C127.365 51.8333 130.234 50.0104 133.156 48.2656C136.073 46.5156 139.031 44.8385 142.031 43.2344C145.031 41.6302 148.073 40.099 151.146 38.6458C154.224 37.1927 157.333 35.8125 160.474 34.5104C163.62 33.2083 166.792 31.9844 169.995 30.8385C173.198 29.6927 176.427 28.625 179.682 27.6406C182.938 26.651 186.219 25.7448 189.516 24.9167C192.818 24.0885 196.135 23.3438 199.474 22.6823C202.807 22.0156 206.161 21.4375 209.526 20.9375C212.891 20.4375 216.266 20.0208 219.651 19.6875C223.036 19.3542 226.432 19.1042 229.828 18.9375C233.224 18.7708 236.625 18.6875 240.031 18.6875H1632.59C1633.59 18.6875 1634.58 18.7344 1635.57 18.8333C1636.56 18.9323 1637.54 19.0781 1638.51 19.2708C1639.48 19.4635 1640.45 19.7031 1641.4 19.9948C1642.35 20.2813 1643.29 20.6146 1644.2 20.9948C1645.12 21.375 1646.02 21.8021 1646.89 22.2708C1647.77 22.7344 1648.62 23.2448 1649.45 23.7969C1650.27 24.349 1651.07 24.9427 1651.84 25.5729C1652.6 26.2031 1653.34 26.8698 1654.04 27.5729C1654.74 28.276 1655.41 29.0104 1656.04 29.776C1656.67 30.5469 1657.26 31.3438 1657.81 32.1667C1658.36 32.9948 1658.88 33.8438 1659.34 34.7188C1659.81 35.599 1660.24 36.4948 1660.62 37.4115C1661 38.3281 1661.33 39.2656 1661.62 40.2135C1661.91 41.1667 1662.15 42.125 1662.34 43.1042C1662.54 44.0781 1662.68 45.0573 1662.78 46.0469C1662.88 47.0365 1662.93 48.026 1662.93 49.0208V404.109C1662.93 405.104 1662.88 406.094 1662.78 407.083C1662.68 408.073 1662.54 409.052 1662.34 410.026C1662.15 411 1661.91 411.964 1661.62 412.917C1661.33 413.865 1661 414.802 1660.62 415.719C1660.24 416.635 1659.81 417.531 1659.34 418.406C1658.88 419.286 1658.36 420.135 1657.81 420.964C1657.27 421.786 1656.67 422.583 1656.04 423.354C1655.41 424.12 1654.74 424.854 1654.04 425.557C1653.34 426.26 1652.6 426.927 1651.84 427.557C1651.07 428.188 1650.27 428.776 1649.45 429.328C1648.62 429.88 1647.77 430.391 1646.89 430.859C1646.02 431.328 1645.12 431.755 1644.2 432.135C1643.29 432.516 1642.35 432.849 1641.4 433.135C1640.45 433.427 1639.48 433.667 1638.51 433.859C1637.54 434.052 1636.56 434.198 1635.57 434.297C1634.58 434.396 1633.59 434.443 1632.59 434.443Z" fill="#00A0E4"/>
<mask id="mask0_297_39" style="mask-type:luminance" maskUnits="userSpaceOnUse" x="1410" y="5" width="488" height="485">
<path d="M1410.54 5.18225H1897.21V490H1410.54V5.18225Z" fill="white"/>
</mask>
<g mask="url(#mask0_297_39)">
<path d="M1895.93 248.104C1895.93 252.068 1895.83 256.031 1895.64 259.995C1895.44 263.953 1895.15 267.906 1894.76 271.854C1894.37 275.802 1893.89 279.734 1893.31 283.656C1892.72 287.583 1892.05 291.49 1891.27 295.375C1890.5 299.266 1889.63 303.135 1888.67 306.979C1887.7 310.828 1886.65 314.651 1885.49 318.443C1884.34 322.24 1883.1 326.005 1881.76 329.74C1880.43 333.474 1879 337.172 1877.48 340.833C1875.96 344.5 1874.36 348.125 1872.66 351.708C1870.97 355.292 1869.18 358.833 1867.31 362.333C1865.45 365.828 1863.49 369.281 1861.45 372.682C1859.41 376.083 1857.29 379.432 1855.09 382.729C1852.89 386.026 1850.6 389.266 1848.24 392.453C1845.88 395.641 1843.44 398.766 1840.92 401.828C1838.41 404.896 1835.82 407.896 1833.16 410.833C1830.49 413.776 1827.76 416.646 1824.95 419.448C1822.15 422.255 1819.28 424.99 1816.34 427.651C1813.4 430.313 1810.4 432.901 1807.33 435.417C1804.27 437.938 1801.14 440.375 1797.96 442.734C1794.77 445.099 1791.53 447.38 1788.23 449.583C1784.94 451.786 1781.59 453.911 1778.18 455.948C1774.78 457.984 1771.33 459.943 1767.84 461.813C1764.34 463.682 1760.8 465.464 1757.21 467.156C1753.63 468.854 1750.01 470.458 1746.34 471.979C1742.68 473.495 1738.97 474.922 1735.24 476.26C1731.51 477.594 1727.74 478.839 1723.95 479.99C1720.16 481.141 1716.33 482.198 1712.48 483.161C1708.64 484.125 1704.77 484.995 1700.88 485.766C1696.99 486.542 1693.08 487.219 1689.16 487.802C1685.24 488.38 1681.31 488.87 1677.36 489.255C1673.41 489.646 1669.46 489.938 1665.5 490.13C1661.54 490.328 1657.57 490.422 1653.61 490.422C1649.64 490.422 1645.68 490.328 1641.72 490.13C1637.76 489.938 1633.8 489.646 1629.85 489.255C1625.91 488.87 1621.97 488.38 1618.05 487.802C1614.13 487.219 1610.22 486.542 1606.33 485.766C1602.44 484.995 1598.57 484.125 1594.73 483.161C1590.88 482.198 1587.06 481.141 1583.27 479.99C1579.47 478.839 1575.7 477.594 1571.97 476.26C1568.24 474.922 1564.54 473.495 1560.88 471.979C1557.21 470.458 1553.59 468.854 1550 467.156C1546.42 465.464 1542.88 463.682 1539.38 461.813C1535.88 459.943 1532.43 457.984 1529.03 455.948C1525.63 453.911 1522.28 451.786 1518.98 449.583C1515.68 447.38 1512.44 445.099 1509.26 442.734C1506.07 440.375 1502.95 437.938 1499.88 435.417C1496.81 432.901 1493.81 430.313 1490.88 427.651C1487.94 424.99 1485.06 422.255 1482.26 419.448C1479.46 416.646 1476.72 413.776 1474.06 410.833C1471.4 407.896 1468.81 404.896 1466.29 401.828C1463.78 398.766 1461.33 395.641 1458.97 392.453C1456.61 389.266 1454.33 386.026 1452.13 382.729C1449.92 379.432 1447.8 376.083 1445.76 372.682C1443.72 369.281 1441.77 365.828 1439.9 362.333C1438.03 358.833 1436.25 355.292 1434.55 351.708C1432.85 348.125 1431.25 344.5 1429.73 340.833C1428.21 337.172 1426.79 333.474 1425.45 329.74C1424.11 326.005 1422.87 322.24 1421.72 318.443C1420.57 314.651 1419.51 310.828 1418.55 306.979C1417.58 303.135 1416.72 299.266 1415.94 295.375C1415.17 291.49 1414.49 287.583 1413.91 283.656C1413.33 279.734 1412.84 275.802 1412.45 271.854C1412.06 267.906 1411.77 263.953 1411.58 259.995C1411.39 256.031 1411.29 252.068 1411.29 248.104C1411.29 244.135 1411.39 240.172 1411.58 236.214C1411.77 232.25 1412.06 228.297 1412.45 224.349C1412.84 220.406 1413.33 216.469 1413.91 212.547C1414.49 208.625 1415.17 204.719 1415.94 200.828C1416.72 196.938 1417.58 193.073 1418.55 189.224C1419.51 185.375 1420.57 181.557 1421.72 177.76C1422.87 173.964 1424.11 170.203 1425.45 166.469C1426.79 162.734 1428.21 159.036 1429.73 155.37C1431.25 151.708 1432.85 148.083 1434.55 144.495C1436.25 140.911 1438.03 137.37 1439.9 133.875C1441.77 130.375 1443.72 126.927 1445.76 123.526C1447.8 120.125 1449.92 116.776 1452.13 113.474C1454.33 110.177 1456.61 106.938 1458.97 103.75C1461.33 100.568 1463.78 97.4427 1466.29 94.375C1468.81 91.3125 1471.4 88.3073 1474.06 85.3698C1476.72 82.4323 1479.46 79.5625 1482.26 76.7552C1485.06 73.9531 1487.94 71.2188 1490.88 68.5573C1493.81 65.8906 1496.81 63.3021 1499.88 60.7865C1502.95 58.2708 1506.07 55.8333 1509.26 53.4688C1512.44 51.1042 1515.68 48.8229 1518.98 46.6198C1522.28 44.4167 1525.63 42.2969 1529.03 40.2552C1532.43 38.2188 1535.88 36.2656 1539.38 34.3958C1542.88 32.526 1546.42 30.7448 1550 29.0469C1553.59 27.3542 1557.21 25.7448 1560.88 24.2292C1564.54 22.7083 1568.24 21.2813 1571.97 19.9479C1575.7 18.6094 1579.47 17.3698 1583.27 16.2135C1587.06 15.0625 1590.88 14.0052 1594.73 13.0417C1598.57 12.0781 1602.44 11.2135 1606.33 10.4375C1610.22 9.66667 1614.13 8.98437 1618.05 8.40625C1621.97 7.82292 1625.91 7.33854 1629.85 6.94792C1633.8 6.5625 1637.76 6.27083 1641.72 6.07292C1645.68 5.88021 1649.64 5.78125 1653.61 5.78125C1657.57 5.78125 1661.54 5.88021 1665.5 6.07292C1669.46 6.27083 1673.41 6.5625 1677.36 6.94792C1681.31 7.33854 1685.24 7.82292 1689.16 8.40625C1693.08 8.98437 1696.99 9.66667 1700.88 10.4375C1704.77 11.2135 1708.64 12.0781 1712.48 13.0417C1716.33 14.0052 1720.16 15.0625 1723.95 16.2135C1727.74 17.3698 1731.51 18.6094 1735.24 19.9479C1738.97 21.2813 1742.68 22.7083 1746.34 24.2292C1750.01 25.7448 1753.63 27.3542 1757.21 29.0469C1760.8 30.7448 1764.34 32.526 1767.84 34.3958C1771.33 36.2656 1774.78 38.2188 1778.18 40.2552C1781.59 42.2969 1784.94 44.4167 1788.23 46.6198C1791.53 48.8229 1794.77 51.1042 1797.96 53.4688C1801.14 55.8333 1804.27 58.2708 1807.33 60.7865C1810.4 63.3021 1813.4 65.8906 1816.34 68.5573C1819.28 71.2188 1822.15 73.9531 1824.95 76.7552C1827.76 79.5625 1830.49 82.4323 1833.16 85.3698C1835.82 88.3073 1838.41 91.3125 1840.92 94.375C1843.44 97.4427 1845.88 100.568 1848.24 103.75C1850.6 106.938 1852.89 110.177 1855.09 113.474C1857.29 116.776 1859.41 120.125 1861.45 123.526C1863.49 126.927 1865.45 130.375 1867.31 133.875C1869.18 137.37 1870.97 140.911 1872.66 144.495C1874.36 148.083 1875.96 151.708 1877.48 155.37C1879 159.036 1880.43 162.734 1881.76 166.469C1883.1 170.203 1884.34 173.964 1885.49 177.76C1886.65 181.557 1887.7 185.375 1888.67 189.224C1889.63 193.073 1890.5 196.938 1891.27 200.828C1892.05 204.719 1892.72 208.625 1893.31 212.547C1893.89 216.469 1894.38 220.406 1894.76 224.349C1895.15 228.297 1895.44 232.25 1895.64 236.214C1895.83 240.172 1895.93 244.135 1895.93 248.104Z" fill="#231F20"/>
</g>
<mask id="mask1_297_39" style="mask-type:luminance" maskUnits="userSpaceOnUse" x="1449" y="0" width="455" height="454">
<path d="M1449.21 0H1903.71V453.182H1449.21V0Z" fill="white"/>
</mask>
<g mask="url(#mask1_297_39)">
<path d="M1903.6 226.573C1903.6 230.281 1903.51 233.984 1903.33 237.688C1903.15 241.391 1902.88 245.089 1902.51 248.781C1902.15 252.469 1901.69 256.146 1901.15 259.818C1900.6 263.484 1899.97 267.135 1899.24 270.771C1898.53 274.406 1897.71 278.026 1896.81 281.62C1895.91 285.219 1894.92 288.792 1893.84 292.339C1892.77 295.885 1891.6 299.406 1890.35 302.896C1889.11 306.391 1887.77 309.849 1886.35 313.271C1884.94 316.698 1883.43 320.089 1881.85 323.438C1880.27 326.792 1878.6 330.099 1876.85 333.37C1875.1 336.641 1873.28 339.865 1871.37 343.047C1869.46 346.224 1867.48 349.359 1865.42 352.443C1863.36 355.526 1861.22 358.552 1859.02 361.531C1856.81 364.51 1854.53 367.432 1852.17 370.297C1849.82 373.167 1847.4 375.974 1844.91 378.719C1842.42 381.469 1839.86 384.151 1837.24 386.771C1834.62 389.396 1831.94 391.948 1829.19 394.443C1826.44 396.932 1823.64 399.349 1820.77 401.703C1817.9 404.057 1814.98 406.339 1812.01 408.547C1809.03 410.755 1805.99 412.885 1802.91 414.948C1799.83 417.005 1796.7 418.99 1793.52 420.896C1790.34 422.802 1787.11 424.63 1783.84 426.38C1780.57 428.125 1777.26 429.792 1773.91 431.38C1770.56 432.964 1767.17 434.464 1763.74 435.885C1760.32 437.302 1756.86 438.635 1753.37 439.885C1749.88 441.135 1746.36 442.297 1742.81 443.375C1739.26 444.448 1735.69 445.438 1732.09 446.339C1728.49 447.24 1724.88 448.052 1721.24 448.776C1717.6 449.5 1713.95 450.135 1710.29 450.677C1706.62 451.224 1702.94 451.677 1699.25 452.036C1695.56 452.401 1691.86 452.677 1688.16 452.854C1684.46 453.036 1680.75 453.13 1677.04 453.13C1673.33 453.13 1669.63 453.036 1665.93 452.854C1662.22 452.677 1658.53 452.401 1654.84 452.036C1651.15 451.677 1647.47 451.224 1643.8 450.677C1640.13 450.135 1636.48 449.5 1632.84 448.776C1629.21 448.052 1625.59 447.24 1621.99 446.339C1618.4 445.438 1614.82 444.448 1611.28 443.375C1607.73 442.297 1604.21 441.135 1600.72 439.885C1597.23 438.635 1593.77 437.302 1590.34 435.885C1586.92 434.464 1583.53 432.964 1580.18 431.38C1576.83 429.792 1573.52 428.125 1570.24 426.38C1566.97 424.63 1563.75 422.802 1560.57 420.896C1557.39 418.99 1554.26 417.005 1551.18 414.948C1548.09 412.885 1545.06 410.755 1542.08 408.547C1539.1 406.339 1536.18 404.057 1533.32 401.703C1530.45 399.349 1527.65 396.932 1524.9 394.443C1522.15 391.948 1519.46 389.396 1516.84 386.771C1514.22 384.151 1511.67 381.469 1509.18 378.719C1506.69 375.974 1504.27 373.167 1501.91 370.297C1499.56 367.432 1497.28 364.51 1495.07 361.531C1492.86 358.552 1490.73 355.526 1488.67 352.443C1486.61 349.359 1484.63 346.224 1482.72 343.047C1480.81 339.865 1478.98 336.641 1477.24 333.37C1475.49 330.099 1473.82 326.792 1472.24 323.438C1470.65 320.089 1469.15 316.698 1467.73 313.271C1466.31 309.849 1464.98 306.391 1463.73 302.896C1462.48 299.406 1461.32 295.885 1460.24 292.339C1459.17 288.792 1458.18 285.219 1457.28 281.62C1456.38 278.026 1455.56 274.406 1454.84 270.771C1454.11 267.135 1453.48 263.484 1452.94 259.818C1452.4 256.146 1451.94 252.469 1451.58 248.781C1451.21 245.089 1450.94 241.391 1450.76 237.688C1450.58 233.984 1450.48 230.281 1450.48 226.573C1450.48 222.865 1450.58 219.161 1450.76 215.458C1450.94 211.755 1451.21 208.057 1451.58 204.365C1451.94 200.677 1452.4 197 1452.94 193.328C1453.48 189.661 1454.11 186.01 1454.84 182.375C1455.56 178.74 1456.38 175.12 1457.28 171.526C1458.18 167.927 1459.17 164.354 1460.24 160.807C1461.32 157.26 1462.48 153.74 1463.73 150.25C1464.98 146.755 1466.31 143.297 1467.73 139.875C1469.15 136.448 1470.65 133.057 1472.24 129.708C1473.82 126.354 1475.49 123.047 1477.24 119.776C1478.98 116.505 1480.81 113.281 1482.72 110.099C1484.63 106.917 1486.61 103.786 1488.67 100.703C1490.73 97.6198 1492.86 94.5885 1495.07 91.6146C1497.28 88.6354 1499.56 85.7135 1501.91 82.849C1504.27 79.9792 1506.69 77.1719 1509.18 74.4271C1511.67 71.6771 1514.22 68.9948 1516.84 66.375C1519.46 63.75 1522.15 61.1927 1524.9 58.7031C1527.65 56.2135 1530.45 53.7917 1533.32 51.4427C1536.18 49.0885 1539.1 46.8073 1542.08 44.599C1545.06 42.3906 1548.09 40.2552 1551.18 38.1979C1554.26 36.1354 1557.39 34.1563 1560.57 32.25C1563.75 30.3438 1566.97 28.5156 1570.24 26.7656C1573.52 25.0208 1576.83 23.3542 1580.18 21.7656C1583.53 20.1823 1586.92 18.6823 1590.34 17.2604C1593.77 15.8438 1597.23 14.5104 1600.72 13.2604C1604.21 12.0104 1607.73 10.849 1611.28 9.77083C1614.82 8.69271 1618.4 7.70833 1621.99 6.80729C1625.59 5.90625 1629.21 5.09375 1632.84 4.36979C1636.48 3.64583 1640.13 3.01042 1643.8 2.46875C1647.47 1.92188 1651.15 1.46875 1654.84 1.10417C1658.53 0.744792 1662.22 0.46875 1665.93 0.286458C1669.63 0.104166 1673.33 0.015625 1677.04 0.015625C1680.75 0.015625 1684.46 0.104166 1688.16 0.286458C1691.86 0.46875 1695.56 0.744792 1699.25 1.10417C1702.94 1.46875 1706.62 1.92188 1710.29 2.46875C1713.95 3.01042 1717.6 3.64583 1721.24 4.36979C1724.88 5.09375 1728.49 5.90625 1732.09 6.80729C1735.69 7.70833 1739.26 8.69271 1742.81 9.77083C1746.36 10.849 1749.88 12.0104 1753.37 13.2604C1756.86 14.5104 1760.32 15.8438 1763.74 17.2604C1767.17 18.6823 1770.56 20.1823 1773.91 21.7656C1777.26 23.3542 1780.57 25.0208 1783.84 26.7656C1787.11 28.5156 1790.34 30.3438 1793.52 32.25C1796.7 34.1563 1799.83 36.1354 1802.91 38.1979C1805.99 40.2552 1809.03 42.3906 1812.01 44.599C1814.98 46.8073 1817.9 49.0885 1820.77 51.4427C1823.64 53.7917 1826.44 56.2135 1829.19 58.7031C1831.94 61.1927 1834.62 63.75 1837.24 66.375C1839.86 68.9948 1842.42 71.6771 1844.91 74.4271C1847.4 77.1719 1849.82 79.9792 1852.17 82.849C1854.53 85.7135 1856.81 88.6354 1859.02 91.6146C1861.22 94.5885 1863.36 97.6198 1865.42 100.703C1867.48 103.786 1869.46 106.917 1871.37 110.099C1873.28 113.281 1875.1 116.505 1876.85 119.776C1878.6 123.047 1880.27 126.354 1881.85 129.708C1883.43 133.057 1884.94 136.448 1886.35 139.875C1887.78 143.297 1889.11 146.755 1890.35 150.25C1891.6 153.74 1892.77 157.26 1893.84 160.807C1894.92 164.354 1895.91 167.927 1896.81 171.526C1897.71 175.12 1898.53 178.74 1899.24 182.375C1899.97 186.01 1900.6 189.661 1901.15 193.328C1901.69 197 1902.15 200.677 1902.51 204.365C1902.88 208.057 1903.15 211.755 1903.33 215.458C1903.51 219.161 1903.6 222.865 1903.6 226.573Z" fill="white"/>
</g>
<path d="M1544.31 184.969C1536.67 161.339 1536.67 144.12 1547.54 121.005C1558.41 97.8958 1575.52 89.3802 1592.56 89.026C1609.59 88.6719 1610.45 104.661 1626.1 130.391C1641.75 156.12 1639.7 152.891 1638.14 158.495C1633.58 169.802 1605.41 183.385 1604.51 191.734C1603.6 200.083 1607.33 209.292 1626.28 235.005C1645.22 260.719 1670.08 278.615 1678.67 284.005C1687.27 289.401 1705 303.292 1713.22 297.687C1721.44 292.083 1736.29 268.891 1744.77 264.448C1753.24 260.005 1788.08 284.526 1800.86 292.083C1813.64 299.641 1814.67 302.776 1814.85 306.068C1817.11 333.349 1794.69 354.911 1764.45 362.198C1734.22 369.479 1697.65 354.12 1670.08 337.969C1579.64 285.073 1552 208.615 1544.31 184.969ZM1700.49 204.042C1699.87 203.406 1699.19 202.844 1698.45 202.344C1697.72 201.844 1696.94 201.417 1696.12 201.073C1695.3 200.724 1694.46 200.464 1693.58 200.281C1692.71 200.104 1691.83 200.01 1690.94 200.005C1690.05 200 1689.17 200.078 1688.3 200.245C1687.43 200.411 1686.58 200.661 1685.75 200.995C1684.93 201.333 1684.14 201.745 1683.4 202.234C1682.66 202.719 1681.97 203.276 1681.33 203.901C1680.7 204.526 1680.14 205.208 1679.64 205.943C1679.14 206.677 1678.71 207.453 1678.36 208.276C1678.02 209.094 1677.76 209.937 1677.57 210.812C1677.4 211.682 1677.3 212.562 1677.29 213.453C1677.29 214.344 1677.37 215.224 1677.54 216.099C1677.7 216.969 1677.95 217.818 1678.29 218.646C1678.62 219.469 1679.03 220.255 1679.52 220.995C1680.01 221.74 1680.56 222.427 1681.19 223.062C1681.81 223.698 1682.49 224.266 1683.23 224.766C1683.96 225.266 1684.74 225.687 1685.56 226.031C1686.38 226.38 1687.22 226.646 1688.1 226.823C1688.97 227.005 1689.85 227.099 1690.74 227.104C1691.63 227.115 1692.51 227.031 1693.39 226.865C1694.26 226.698 1695.1 226.448 1695.93 226.115C1696.76 225.781 1697.54 225.37 1698.28 224.88C1699.03 224.396 1699.71 223.839 1700.35 223.214C1700.98 222.589 1701.55 221.911 1702.06 221.177C1702.56 220.437 1702.98 219.661 1703.33 218.844C1703.68 218.026 1703.94 217.177 1704.13 216.307C1704.31 215.437 1704.4 214.552 1704.41 213.667C1704.42 212.776 1704.34 211.891 1704.18 211.016C1704.01 210.141 1703.76 209.292 1703.43 208.469C1703.09 207.641 1702.68 206.854 1702.19 206.109C1701.71 205.365 1701.15 204.677 1700.53 204.042H1700.49ZM1728.11 233.276C1732.68 234.292 1737.81 228.141 1737.11 220.031C1736.96 218.365 1736.74 216.703 1736.45 215.052C1736.16 213.401 1735.79 211.766 1735.36 210.146C1734.93 208.531 1734.42 206.932 1733.85 205.354C1733.28 203.781 1732.65 202.234 1731.94 200.714C1731.23 199.193 1730.47 197.703 1729.64 196.25C1728.8 194.792 1727.91 193.375 1726.95 192C1726 190.62 1724.99 189.286 1723.92 187.995C1722.85 186.708 1721.73 185.464 1720.55 184.271C1719.38 183.078 1718.15 181.937 1716.88 180.849C1715.6 179.76 1714.28 178.729 1712.92 177.755C1711.55 176.776 1710.15 175.865 1708.71 175.01C1707.27 174.156 1705.79 173.365 1704.28 172.641C1702.77 171.911 1701.23 171.25 1699.66 170.656C1698.09 170.062 1696.51 169.536 1694.9 169.083C1693.28 168.625 1691.65 168.24 1690.01 167.922C1688.36 167.604 1686.7 167.359 1685.04 167.182C1676.96 166.359 1670.71 171.401 1671.67 175.984C1672.58 180.62 1677.95 183.531 1683.29 184.062C1684.47 184.187 1685.65 184.359 1686.81 184.583C1687.97 184.807 1689.13 185.083 1690.27 185.406C1691.41 185.729 1692.53 186.099 1693.64 186.521C1694.75 186.943 1695.84 187.406 1696.91 187.922C1697.97 188.437 1699.02 188.995 1700.04 189.599C1701.06 190.203 1702.05 190.849 1703.02 191.542C1703.98 192.229 1704.92 192.958 1705.82 193.729C1706.72 194.5 1707.59 195.307 1708.42 196.151C1709.25 196.995 1710.05 197.875 1710.8 198.786C1711.56 199.703 1712.28 200.646 1712.95 201.62C1713.63 202.594 1714.26 203.594 1714.84 204.625C1715.43 205.656 1715.98 206.708 1716.48 207.781C1716.97 208.859 1717.43 209.953 1717.83 211.068C1718.23 212.182 1718.59 213.312 1718.9 214.458C1719.2 215.604 1719.46 216.76 1719.67 217.932C1719.88 219.099 1720.03 220.271 1720.14 221.453C1720.7 226.88 1723.59 232.307 1728.16 233.292L1728.11 233.276ZM1755.75 229.948C1760.35 230.87 1765.26 225.427 1765.24 218.047C1765.23 215.484 1765.1 212.932 1764.84 210.391C1764.58 207.844 1764.19 205.318 1763.69 202.807C1763.19 200.297 1762.56 197.818 1761.82 195.37C1761.07 192.922 1760.21 190.516 1759.24 188.151C1758.26 185.786 1757.17 183.474 1755.97 181.214C1754.77 178.953 1753.47 176.755 1752.05 174.625C1750.64 172.49 1749.13 170.432 1747.52 168.443C1745.91 166.453 1744.2 164.552 1742.41 162.729C1740.61 160.906 1738.73 159.172 1736.77 157.531C1734.8 155.891 1732.77 154.349 1730.65 152.906C1728.54 151.464 1726.36 150.125 1724.12 148.891C1721.88 147.656 1719.58 146.536 1717.23 145.526C1714.88 144.516 1712.48 143.62 1710.05 142.839C1707.61 142.057 1705.14 141.401 1702.64 140.859C1700.14 140.318 1697.62 139.896 1695.08 139.599C1692.54 139.302 1689.98 139.13 1687.43 139.078C1680.05 138.953 1674.51 143.797 1675.38 148.401C1676.22 153.036 1681.58 155.99 1687.1 156.104C1689.11 156.146 1691.11 156.281 1693.11 156.51C1695.11 156.745 1697.09 157.073 1699.05 157.5C1701.02 157.922 1702.95 158.443 1704.87 159.057C1706.78 159.667 1708.66 160.37 1710.51 161.161C1712.35 161.958 1714.16 162.839 1715.92 163.807C1717.68 164.776 1719.39 165.828 1721.05 166.958C1722.7 168.094 1724.3 169.307 1725.84 170.594C1727.39 171.88 1728.86 173.24 1730.28 174.672C1731.68 176.104 1733.02 177.599 1734.29 179.161C1735.55 180.719 1736.74 182.339 1737.85 184.016C1738.96 185.687 1739.98 187.411 1740.93 189.187C1741.87 190.964 1742.72 192.781 1743.49 194.635C1744.26 196.495 1744.93 198.385 1745.52 200.307C1746.1 202.229 1746.59 204.172 1746.98 206.146C1747.38 208.115 1747.68 210.099 1747.89 212.099C1748.09 214.094 1748.2 216.099 1748.21 218.109C1748.29 223.667 1751.16 229.042 1755.8 229.964L1755.75 229.948Z" fill="#00A0E4"/>
<path d="M248.51 247.635L273.479 255.547C269.656 269.469 263.292 279.807 254.385 286.557C245.484 293.312 234.177 296.687 220.469 296.687C203.531 296.687 189.615 290.901 178.719 279.323C167.823 267.75 162.38 251.937 162.391 231.885C162.391 210.661 167.87 194.177 178.833 182.432C189.792 170.682 204.203 164.807 222.068 164.807C237.672 164.807 250.344 169.417 260.089 178.635C265.88 184.083 270.234 191.911 273.141 202.12L247.651 208.208C247.354 206.677 246.927 205.177 246.365 203.724C245.802 202.266 245.12 200.87 244.307 199.531C243.5 198.198 242.578 196.943 241.542 195.771C240.51 194.599 239.38 193.531 238.156 192.557C236.938 191.589 235.635 190.734 234.26 189.995C232.885 189.255 231.453 188.641 229.969 188.156C228.484 187.672 226.969 187.318 225.422 187.104C223.875 186.891 222.323 186.812 220.76 186.87C218.583 186.802 216.427 186.979 214.286 187.396C212.151 187.812 210.089 188.458 208.094 189.339C206.104 190.219 204.234 191.312 202.484 192.615C200.74 193.911 199.156 195.391 197.745 197.047C191.854 203.833 188.911 214.818 188.911 230.01C188.911 246.167 191.813 257.646 197.615 264.464C198.984 266.125 200.521 267.609 202.234 268.917C203.943 270.224 205.776 271.323 207.734 272.208C209.693 273.099 211.729 273.755 213.839 274.177C215.948 274.604 218.078 274.781 220.229 274.719C223.469 274.792 226.615 274.266 229.661 273.151C232.708 272.036 235.448 270.406 237.88 268.26C242.823 263.844 246.365 256.969 248.51 247.635Z" fill="white"/>
<path d="M290.359 231.531C290.359 218.547 292.302 207.641 296.187 198.823C299.099 192.286 303.057 186.453 308.057 181.333C312.766 176.37 318.26 172.542 324.552 169.849C333.359 166.307 342.51 164.625 352.005 164.807C370.797 164.807 385.833 170.641 397.12 182.302C408.401 193.964 414.047 210.172 414.047 230.932C414.047 251.521 408.448 267.63 397.25 279.26C386.047 290.885 371.078 296.703 352.328 296.703C333.37 296.703 318.292 290.917 307.104 279.339C295.917 267.766 290.333 251.828 290.359 231.531ZM316.896 230.661C316.896 245.099 320.224 256.042 326.891 263.495C327.693 264.37 328.536 265.203 329.427 265.995C330.312 266.781 331.24 267.521 332.203 268.214C333.172 268.906 334.167 269.547 335.198 270.141C336.229 270.729 337.286 271.26 338.375 271.74C339.464 272.219 340.573 272.646 341.703 273.01C342.833 273.375 343.979 273.677 345.141 273.922C346.302 274.172 347.474 274.354 348.656 274.479C349.833 274.604 351.021 274.667 352.208 274.672C353.396 274.672 354.578 274.615 355.76 274.49C356.943 274.37 358.115 274.188 359.276 273.948C360.443 273.703 361.589 273.401 362.719 273.042C363.849 272.682 364.958 272.26 366.047 271.786C367.135 271.307 368.198 270.776 369.229 270.193C370.266 269.604 371.266 268.969 372.229 268.281C373.198 267.589 374.125 266.849 375.016 266.068C375.906 265.281 376.755 264.448 377.557 263.578C384.135 256.177 387.427 245.089 387.427 230.302C387.427 215.693 384.198 204.792 377.734 197.599C371.276 190.406 362.807 186.828 352.328 186.87C341.714 186.87 333.156 190.51 326.667 197.792C320.172 205.068 316.911 216.026 316.875 230.661H316.896Z" fill="white"/>
<path d="M434.411 294.521V166.927H459.463L511.667 252.094V166.99H535.583V294.589H509.745L458.333 211.422V294.589L434.411 294.521Z" fill="white"/>
<path d="M591.516 294.521V188.49H553.677V166.99H655.01V188.49H617.214V294.443L591.516 294.521Z" fill="white"/>
<path d="M773.417 294.521H745.391L734.266 265.563H683.292L672.76 294.521H645.448L695.115 166.927H722.344L773.417 294.521ZM726.01 244.063L708.438 196.74L691.219 244.063H726.01Z" fill="white"/>
<path d="M868.661 247.635L893.63 255.547C889.807 269.469 883.443 279.807 874.542 286.557C865.635 293.312 854.328 296.687 840.62 296.687C823.682 296.687 809.766 290.901 798.87 279.323C787.974 267.75 782.521 251.932 782.51 231.87C782.51 210.646 787.99 194.161 798.953 182.417C809.911 170.667 824.323 164.792 842.188 164.792C857.792 164.792 870.464 169.401 880.208 178.62C886 184.068 890.354 191.896 893.26 202.104L867.771 208.193C867.474 206.661 867.047 205.167 866.484 203.714C865.922 202.255 865.24 200.865 864.427 199.526C863.62 198.193 862.698 196.943 861.667 195.771C860.635 194.604 859.51 193.531 858.286 192.562C857.063 191.594 855.766 190.74 854.396 190C853.021 189.26 851.594 188.646 850.109 188.161C848.625 187.677 847.115 187.328 845.568 187.109C844.026 186.891 842.474 186.812 840.911 186.87C838.734 186.802 836.578 186.979 834.443 187.396C832.302 187.812 830.24 188.458 828.245 189.339C826.255 190.224 824.385 191.312 822.641 192.615C820.891 193.911 819.313 195.391 817.896 197.047C812.005 203.833 809.063 214.818 809.063 230.01C809.063 246.167 811.964 257.646 817.766 264.464C819.135 266.125 820.677 267.609 822.385 268.917C824.094 270.224 825.927 271.323 827.885 272.208C829.844 273.099 831.88 273.755 833.99 274.177C836.099 274.604 838.229 274.781 840.38 274.719C843.625 274.792 846.766 274.266 849.813 273.151C852.859 272.036 855.599 270.406 858.031 268.26C862.974 263.844 866.516 256.969 868.661 247.635Z" fill="white"/>
<path d="M944.427 294.521V188.49H906.583V166.99H1007.94V188.49H970.172V294.443L944.427 294.521Z" fill="white"/>
<path d="M1073.86 166.99H1099.61V236.052C1099.61 247.016 1099.93 254.12 1100.56 257.375C1101.05 259.88 1101.97 262.219 1103.33 264.385C1104.69 266.552 1106.39 268.406 1108.43 269.938C1112.57 273.104 1118.24 274.682 1125.44 274.672C1132.63 274.662 1138.14 273.172 1141.96 270.198C1143.72 268.849 1145.19 267.224 1146.34 265.328C1147.5 263.427 1148.28 261.385 1148.66 259.198C1149.59 252.005 1149.96 244.787 1149.79 237.542V166.99H1175.54V233.969C1175.54 249.281 1174.84 260.099 1173.46 266.417C1172.25 272.406 1169.68 277.745 1165.75 282.427C1161.59 287.099 1156.58 290.568 1150.74 292.828C1144.48 295.412 1136.3 296.703 1126.21 296.703C1114.04 296.703 1104.8 295.297 1098.51 292.484C1092.66 290.026 1087.68 286.37 1083.59 281.521C1080.09 277.37 1077.68 272.656 1076.37 267.385C1074.69 260.078 1073.85 249.307 1073.85 235.083L1073.86 166.99Z" fill="white"/>
<path d="M1196.18 253.094L1221.28 250.589C1222.79 259 1225.84 265.177 1230.45 269.115C1235.06 273.057 1241.28 275.026 1249.11 275.026C1257.4 275.026 1263.65 273.271 1267.86 269.76C1268.82 269.047 1269.69 268.229 1270.47 267.318C1271.24 266.401 1271.91 265.412 1272.45 264.344C1273 263.276 1273.42 262.162 1273.71 261C1274 259.833 1274.16 258.651 1274.18 257.453C1274.21 256.052 1274.01 254.688 1273.55 253.365C1273.09 252.037 1272.42 250.833 1271.53 249.75C1268.92 247.099 1265.83 245.255 1262.26 244.224C1259.24 243.151 1252.37 241.292 1241.65 238.656C1227.84 235.229 1218.15 231.026 1212.57 226.042C1210.71 224.464 1209.05 222.703 1207.57 220.76C1206.1 218.818 1204.85 216.734 1203.84 214.521C1202.82 212.302 1202.06 210 1201.56 207.615C1201.05 205.224 1200.81 202.813 1200.83 200.375C1200.83 197.13 1201.3 193.958 1202.24 190.854C1203.18 187.75 1204.56 184.854 1206.35 182.156C1208.3 179.245 1210.62 176.693 1213.34 174.49C1216.05 172.287 1219.04 170.531 1222.28 169.234C1230.34 166.047 1238.71 164.568 1247.38 164.792C1263.39 164.792 1275.44 168.302 1283.53 175.323C1291.61 182.344 1295.86 191.714 1296.27 203.427L1270.53 204.557C1269.45 198.01 1267.08 193.302 1263.44 190.427C1259.79 187.552 1254.35 186.12 1247.12 186.13C1239.64 186.13 1233.78 187.662 1229.55 190.734C1228.24 191.62 1227.22 192.76 1226.49 194.167C1225.77 195.573 1225.43 197.068 1225.46 198.646C1225.47 200.162 1225.81 201.599 1226.48 202.958C1227.15 204.318 1228.09 205.458 1229.29 206.385C1232.52 209.109 1240.41 211.948 1252.95 214.912C1265.5 217.87 1274.74 220.912 1280.69 224.021C1283.57 225.495 1286.21 227.333 1288.6 229.526C1290.99 231.719 1293.05 234.193 1294.77 236.943C1295.64 238.505 1296.41 240.115 1297.06 241.781C1297.72 243.443 1298.27 245.146 1298.69 246.88C1299.12 248.615 1299.43 250.375 1299.63 252.151C1299.82 253.932 1299.9 255.714 1299.85 257.5C1299.81 259.292 1299.65 261.068 1299.37 262.833C1299.09 264.599 1298.69 266.344 1298.17 268.052C1297.66 269.766 1297.04 271.438 1296.3 273.068C1295.56 274.698 1294.72 276.271 1293.77 277.792C1291.71 281 1289.21 283.823 1286.28 286.255C1283.33 288.682 1280.09 290.604 1276.55 292.021C1269.13 295.141 1259.86 296.703 1248.74 296.703C1232.59 296.703 1220.2 292.979 1211.59 285.526C1202.97 278.073 1197.84 267.266 1196.18 253.094Z" fill="white"/>
</svg>
