<svg width="123" height="93" viewBox="0 0 123 93" fill="none" xmlns="http://www.w3.org/2000/svg">
<g clip-path="url(#clip0_69_6)">
<path d="M27.9546 92.5422V44.8809L13.2163 31.3583L0 23.8542V84.1313C0 88.7851 3.75967 92.5422 8.38658 92.5422H27.9546Z" fill="#4285F4"/>
<path d="M95.0453 92.5422H114.613C119.254 92.5422 123 88.7711 123 84.1313V23.8547L108.03 32.4498L95.0453 44.8809V92.5422Z" fill="#34A853"/>
<path d="M27.9546 44.8809L25.9492 26.2583L27.9546 8.43457L61.5 33.667L95.0454 8.43457L97.2887 25.296L95.0454 44.8809L61.5 70.1133L27.9546 44.8809Z" fill="#EA4335"/>
<path d="M95.0453 8.43467V44.881L123 23.8544V12.6399C123 2.23884 111.161 -3.69051 102.873 2.54723L95.0453 8.43467Z" fill="#FBBC04"/>
<path d="M0 23.8543L12.8569 33.5254L27.9546 44.881V8.43464L20.1268 2.54721C11.8243 -3.69102 0 2.23882 0 12.6394V23.8543Z" fill="#C5221F"/>
</g>
<defs>
<clipPath id="clip0_69_6">
<rect width="123" height="93" fill="white"/>
</clipPath>
</defs>
</svg>
